<svg width="105" height="61" viewBox="0 0 105 61" fill="none" xmlns="http://www.w3.org/2000/svg">
<path d="M104.085 0.569016L105.059 0.793869L105.342 -0.430984H104.085V0.569016ZM99.43 20.904L98.4549 20.6824L98.4525 20.693L98.4503 20.7036L99.43 20.904ZM95.265 41.974L96.2465 42.1655L96.2473 42.1611L95.265 41.974ZM92.08 60.594V61.594H92.9473L93.07 60.7354L92.08 60.594ZM58.515 60.594L57.6713 61.1309L57.9661 61.594H58.515V60.594ZM56.8 57.899L55.8299 57.6565L55.7256 58.0734L55.9563 58.4359L56.8 57.899ZM62.435 39.279L61.4911 38.9487L62.435 39.279ZM69.785 19.434L68.8613 19.051L68.8572 19.0607L68.8534 19.0705L69.785 19.434ZM77.87 0.569016V-0.430984H77.2201L76.9562 0.162872L77.87 0.569016ZM48.225 0.569016L49.1994 0.793869L49.4821 -0.430984H48.225V0.569016ZM43.57 20.904L42.5949 20.6824L42.5925 20.693L42.5903 20.7036L43.57 20.904ZM39.405 41.974L40.3865 42.1655L40.3873 42.1611L39.405 41.974ZM36.22 60.594V61.594H37.0873L37.2099 60.7354L36.22 60.594ZM2.655 60.594L1.81134 61.1309L2.10605 61.594H2.655V60.594ZM0.94 57.899L-0.0301425 57.6565L-0.134363 58.0734L0.0963385 58.4359L0.94 57.899ZM6.575 39.279L5.63114 38.9487L6.575 39.279ZM13.925 19.434L13.0013 19.051L12.9972 19.0607L12.9934 19.0705L13.925 19.434ZM22.01 0.569016V-0.430984H21.3601L21.0962 0.162872L22.01 0.569016ZM103.111 0.344154C101.64 6.71536 100.088 13.4948 98.4549 20.6824L100.405 21.1256C102.038 13.9399 103.59 7.16267 105.059 0.793869L103.111 0.344154ZM98.4503 20.7036C96.9794 27.8945 95.5902 34.9223 94.2827 41.7869L96.2473 42.1611C97.5531 35.3058 98.9406 28.2869 100.41 21.1044L98.4503 20.7036ZM94.2835 41.7825C92.9742 48.4929 91.9095 54.7165 91.09 60.4526L93.07 60.7354C93.8838 55.0382 94.9425 48.8485 96.2465 42.1655L94.2835 41.7825ZM92.08 59.594H58.515V61.594H92.08V59.594ZM59.3587 60.0571L57.6437 57.3621L55.9563 58.4359L57.6713 61.1309L59.3587 60.0571ZM57.7701 58.1416C59.2318 52.295 61.1009 46.1178 63.3789 39.6094L61.4911 38.9487C59.1958 45.5069 57.3082 51.743 55.8299 57.6565L57.7701 58.1416ZM63.3789 39.6094C65.6615 33.0876 68.1074 26.4837 70.7166 19.7976L68.8534 19.0705C66.236 25.7777 63.7819 32.4038 61.4911 38.9487L63.3789 39.6094ZM70.7087 19.817C73.4826 13.1272 76.1743 6.8466 78.7838 0.975151L76.9562 0.162872C74.3391 6.05143 71.6407 12.3475 68.8613 19.051L70.7087 19.817ZM77.87 1.56902H104.085V-0.430984H77.87V1.56902ZM47.2506 0.344154C45.7803 6.71536 44.2284 13.4948 42.5949 20.6824L44.5451 21.1256C46.1783 13.9399 47.7297 7.16267 49.1994 0.793869L47.2506 0.344154ZM42.5903 20.7036C41.1194 27.8945 39.7302 34.9223 38.4227 41.7869L40.3873 42.1611C41.6931 35.3058 43.0806 28.2869 44.5497 21.1044L42.5903 20.7036ZM38.4235 41.7825C37.1142 48.4929 36.0495 54.7165 35.2301 60.4526L37.2099 60.7354C38.0238 55.0382 39.0825 48.8485 40.3865 42.1655L38.4235 41.7825ZM36.22 59.594H2.655V61.594H36.22V59.594ZM3.49866 60.0571L1.78366 57.3621L0.0963385 58.4359L1.81134 61.1309L3.49866 60.0571ZM1.91014 58.1416C3.37178 52.295 5.2409 46.1178 7.51886 39.6094L5.63114 38.9487C3.33576 45.5069 1.44822 51.743 -0.0301425 57.6565L1.91014 58.1416ZM7.51886 39.6094C9.80148 33.0876 12.2474 26.4837 14.8566 19.7976L12.9934 19.0705C10.376 25.7777 7.92185 32.4038 5.63114 38.9487L7.51886 39.6094ZM14.8487 19.817C17.6226 13.1272 20.3143 6.8466 22.9238 0.975151L21.0962 0.162872C18.4791 6.05143 15.7807 12.3475 13.0013 19.051L14.8487 19.817ZM22.01 1.56902H48.225V-0.430984H22.01V1.56902Z" fill="#4A5A2D"/>
</svg>
